
		<svg xmlns="http://www.w3.org/2000/svg" xmlns:xlink="http://www.w3.org/1999/xlink" version="1.1" width="3200" height="1120">
			<rect fill="#484848" width="3200" height="1120"/>
			<g transform="scale(10) translate(10, 10)">
				<defs id="SvgjsDefs1895"></defs><g id="SvgjsG1896" featureKey="root" fill="#484848"></g><g id="SvgjsG1897" featureKey="symbol1" fill="#d9fcd3" transform="matrix(1.7204096225887768,0,0,1.7204096225887768,3.540524517324074,4.517664404580076)"><g xmlns="http://www.w3.org/2000/svg" transform="translate(0,-1004.3622)"><path style="" d="" transform="translate(0,308.2677)" fill="#d9fcd3" fill-opacity="1" stroke="#d9fcd3" stroke-width="0.75761443" stroke-linecap="round" stroke-linejoin="round" stroke-miterlimit="4" stroke-opacity="1" stroke-dasharray="none" stroke-dashoffset="0"></path><path style="" d="" transform="translate(0,308.2677)" fill="#d9fcd3" fill-opacity="1" stroke="#d9fcd3" stroke-width="0.37880722" stroke-linecap="round" stroke-linejoin="round" stroke-miterlimit="4" stroke-opacity="1" stroke-dasharray="none" stroke-dashoffset="0"></path><path style="" d="m 11.198215,1013.2487 c -0.377474,0 -0.664314,0.2868 -0.664314,0.6643 l 0,1.9652 3.072455,-2.6295 -2.408141,0 z m 11.34871,0 c -0.03792,0.047 -0.06331,0.098 -0.110719,0.1383 l -5.314518,4.5672 16.33107,0 c 0.377474,0 0.691994,0.2868 0.691994,0.6643 l 0,0.1107 c 0,0.3775 -0.31452,0.692 -0.691994,0.692 l -17.715059,0 c -0.09437,0 -0.194229,-0.02 -0.276798,-0.055 l -4.927,4.235 0,20.2893 c 0,0.3775 0.28684,0.6643 0.664314,0.6643 l 19.818722,0 -1.550067,-0.3322 3.155495,-2.1313 -1.245591,-1.4117 -15.639075,0 c -0.377474,0 -0.691994,-0.3145 -0.691994,-0.6919 l 0,-0.1108 c 0,-0.3775 0.31452,-0.6643 0.691994,-0.6643 l 17.715059,0 c 0.152686,0 0.29976,0.058 0.415197,0.1384 l -0.221439,-2.242 c -0.06026,0.018 -0.128426,0.027 -0.193758,0.027 l -17.715059,0 c -0.377474,0 -0.691994,-0.3145 -0.691994,-0.6919 l 0,-0.1107 c 0,-0.3776 0.31452,-0.6644 0.691994,-0.6644 l 17.715059,0 c 0.359326,0 0.663759,0.2583 0.691994,0.609 l 2.51886,1.7991 1.965265,-2.9894 0,-21.175 c 0,-0.3775 -0.314521,-0.6643 -0.691995,-0.6643 l -15.389957,0 z m -6.809226,8.2485 17.715059,0 c 0.377474,0 0.691994,0.2868 0.691994,0.6643 l 0,0.1108 c 0,0.3774 -0.31452,0.6919 -0.691994,0.6919 l -17.715059,0 c -0.377474,0 -0.691994,-0.3145 -0.691994,-0.6919 l 0,-0.1108 c 0,-0.3775 0.31452,-0.6643 0.691994,-0.6643 z m 0,3.543 17.715059,0 c 0.377474,0 0.691994,0.2868 0.691994,0.6644 l 0,0.1107 c 0,0.3774 -0.31452,0.6919 -0.691994,0.6919 l -17.715059,0 c -0.377474,0 -0.691994,-0.3145 -0.691994,-0.6919 l 0,-0.1107 c 0,-0.3776 0.31452,-0.6644 0.691994,-0.6644 z m 0,3.543 17.715059,0 c 0.377474,0 0.691994,0.2869 0.691994,0.6644 l 0,0.1107 c 0,0.3774 -0.31452,0.6919 -0.691994,0.6919 l -17.715059,0 c -0.377474,0 -0.691994,-0.3145 -0.691994,-0.6919 l 0,-0.1107 c 0,-0.3775 0.31452,-0.6644 0.691994,-0.6644 z m 0,3.5431 17.715059,0 c 0.377474,0 0.691994,0.2868 0.691994,0.6643 l 0,0.1107 c 0,0.3774 -0.31452,0.6919 -0.691994,0.6919 l -17.715059,0 c -0.377474,0 -0.691994,-0.3145 -0.691994,-0.6919 l 0,-0.1107 c 0,-0.3775 0.31452,-0.6643 0.691994,-0.6643 z" fill="#d9fcd3" fill-opacity="1" stroke="none"></path><path d="m 40.493109,1042.6705 c 0,1.4806 -1.263406,2.6808 -2.821896,2.6808 -1.55849,0 -2.821897,-1.2002 -2.821897,-2.6808 0,-1.4804 1.263407,-2.6805 2.821897,-2.6805 1.55849,0 2.821896,1.2001 2.821896,2.6805 z m 0.386754,5.8658 -3.669125,-2.7435 -4.332388,1.6547 1.612953,-4.1627 -2.995421,-3.4027 4.665984,0.1709 2.481115,-3.7578 1.270786,4.2683 4.528836,1.0804 -3.880599,2.467 z m 3.028873,-3.0333 -4.668906,-0.068 -2.388541,3.8115 -1.374834,-4.2392 -4.554035,-0.98 3.819212,-2.5521 -0.426008,-4.4173 3.735236,2.6619 4.29075,-1.7499 -1.510711,4.1972 z m -2.42924,-2.7644 c 0,2.0259 -1.728917,3.6683 -3.861643,3.6683 -2.132726,0 -3.861643,-1.6424 -3.861643,-3.6683 0,-2.026 1.728917,-3.6684 3.861643,-3.6684 2.132726,0 3.861643,1.6424 3.861643,3.6684 z" style="" fill="#d9fcd3" fill-opacity="1" stroke="none"></path><path style="" d="m 7.2031582,1019.9635 c 0,0 -3.9903568,4.7301 -3.3862784,5.6163 0.671003,0.9844 5.9476901,-2.516 5.9476901,-2.516 l -0.1767462,-0.297 M 21.42164,1007.5502 c -0.158144,0.012 -0.340935,0.084 -0.488441,0.2116 l -2.233414,1.936 2.947321,3.385 2.216271,-1.9196 c 0.29513,-0.256 0.37676,-0.6434 0.187106,-0.8638 l -2.237551,-2.6058 c -0.09592,-0.1093 -0.23349,-0.1545 -0.391657,-0.143 z m -3.619138,2.9283 -9.4436823,8.2002 c -0.2951256,0.256 -0.3746303,0.629 -0.1850625,0.8498 l 2.2375148,2.6057 c 0.191839,0.2185 0.569921,0.1895 0.865031,-0.067 l 9.473861,-8.2046 -2.947927,-3.3845 z m 0.0302,1.7841 0.24189,0.2757 -7.601896,6.618 -0.241896,-0.2757 7.601959,-6.6179 z m 0.959889,0.9847 0.255281,0.275 -7.604067,6.6323 -0.25528,-0.2749 7.604009,-6.6324 z" fill="#d9fcd3" fill-opacity="1" stroke="none"></path></g></g><g id="SvgjsG1898" featureKey="text1" fill="#ffffff" transform="matrix(2.1891627514942553,0,0,2.1891627514942553,98.68650151400414,14.323901515249673)"><path d="M8.22 6.260000000000002 c-3.16 0 -5.4 2.8 -5.4 5.84 c0 3.06 2.24 5.86 5.4 5.86 c3.18 0 5.4 -2.8 5.4 -5.86 c0 -3.04 -2.24 -5.84 -5.4 -5.84 z M8.22 4.420000000000002 c4.2 0 7.62 3.32 7.62 7.68 s-3.42 7.7 -7.62 7.7 s-7.62 -3.34 -7.62 -7.7 s3.42 -7.68 7.62 -7.68 z M17.7 15.420000000000002 l0 -5.7 l2.06 0 l0 5.5 c0 2 0.62 2.88 2.32 2.88 c1.92 0 2.7 -1.34 2.7 -3.08 l0 -5.3 l2.06 0 l0 9.88 l-2.06 0 l0 -1.6 c-0.28 0.88 -1.52 1.68 -2.7 1.76 c-2.68 0.2 -4.38 -1.1 -4.38 -4.34 z M35.58 9.840000000000002 l-0.44 1.62 c-0.14 -0.08 -0.58 -0.22 -0.94 -0.22 c-1.7 0 -2.5 1.62 -2.5 3.62 l0 4.74 l-2.06 0 l0 -9.88 l2.06 0 l0 1.4 c0.24 -0.92 1.3 -1.58 2.48 -1.58 c0.54 0 1.12 0.14 1.4 0.3 z M47.08 4.600000000000001 l0 1.84 l-4.64 0 l0 13.16 l-2.22 0 l0 -13.16 l-4.64 0 l0 -1.84 l11.5 0 z M57.599999999999994 14.680000000000001 l0 0.74 l-7.78 0 c0 1.82 1.74 2.7 3.02 2.7 c0.94 0 1.98 -0.5 2.54 -1.3 l1.42 1.28 c-0.66 0.9 -1.74 1.7 -3.96 1.7 c-3.2 0 -5.16 -2.18 -5.16 -5.12 s1.9 -5.14 4.96 -5.14 s4.46 1.7 4.88 4.18 c0.06 0.32 0.08 0.64 0.08 0.96 z M49.86 13.720000000000002 l5.58 0 c0 -1.6 -1.28 -2.48 -2.8 -2.48 s-2.78 1.02 -2.78 2.48 z M65.53999999999999 9.840000000000002 l-0.44 1.62 c-0.14 -0.08 -0.58 -0.22 -0.94 -0.22 c-1.7 0 -2.5 1.62 -2.5 3.62 l0 4.74 l-2.06 0 l0 -9.88 l2.06 0 l0 1.4 c0.24 -0.92 1.3 -1.58 2.48 -1.58 c0.54 0 1.12 0.14 1.4 0.3 z M75.61999999999999 13.900000000000002 l0 5.7 l-2.08 0 l0.02 -0.08 l0 -5.42 c0 -2 -0.52 -2.88 -2.22 -2.88 c-1.92 0 -2.6 1.34 -2.6 3.08 l0 5.3 l-2.06 0 l0 -9.88 l2.06 0 l0 1.6 c0.28 -0.88 1.42 -1.68 2.6 -1.76 c1.94 -0.14 3.32 0.5 3.94 2.1 c0.42 -1.36 1.76 -2.02 2.92 -2.1 c2.68 -0.2 4.28 1.1 4.28 4.34 l0 5.7 l-2.06 0 l0 -5.5 c0 -2 -0.52 -2.88 -2.22 -2.88 c-1.72 0 -2.44 1.08 -2.58 2.68 z M91.69999999999999 15.760000000000002 c0.04 0.12 0.38 1.1 -0.04 2.1 c-0.52 1.18 -1.9 1.94 -3.62 1.94 l-0.02 0 c-1.38 0 -2.64 -0.58 -3.58 -1.5 l1.34 -1.34 c0.56 0.72 1.36 1.08 2.24 1.08 c0.98 0 1.8 -0.36 2.02 -0.88 c0.14 -0.36 0.02 -0.74 0.02 -0.78 c-0.24 -0.6 -1.12 -0.72 -2.12 -0.94 c-1.34 -0.3 -2.68 -0.64 -3.2 -2.04 c-0.26 -0.72 -0.18 -1.56 0.18 -2.26 c0.82 -1.54 2.86 -1.6 3.1 -1.6 c1.38 0 2.68 0.52 3.6 1.46 l-1.34 1.34 c-0.56 -0.72 -1.38 -1.04 -2.26 -1.04 c-0.02 0 -1.2 0.02 -1.54 0.68 c-0.12 0.2 -0.18 0.54 -0.08 0.82 c0.2 0.56 1.1 0.74 2.06 0.96 c1.3 0.3 2.72 0.6 3.24 2 z"></path></g><g id="SvgjsG1899" featureKey="text3" fill="#ffffff" transform="matrix(1,0,0,1,105,73)"><path d=""></path></g>
			</g>
		</svg>
	